# xmcd CD database file
#
# Track frame offsets:
#	150
#	18982
#	44400
#	64162
#	82995
#	101827
#	120660
#	139417
#	169690
#
# Disc length: 4440 seconds
#
# Revision: 3
# Processed by: cddbd v1.5.1PL2 Copyright (c) Steve Scherf et al.
# Submitted via: CDex 1.51
#
DISCID=77115609
DTITLE=タッキー&翼 - Venus
DYEAR=2006
DGENRE=JPop
TTITLE0=Venus
TTITLE1=君の名を呼びたい
TTITLE2=Never Ever
TTITLE3=Venus 〜Korean Version〜
TTITLE4=Venus 〜Chinese Version〜
TTITLE5=Venus 〜Thai Version〜
TTITLE6=Venus 〜karaoke〜
TTITLE7=仮面 〜'06 Remix〜 (Bonus Track)
TTITLE8=CCCD
EXTD=YEAR: 2006
EXTT0=
EXTT1=
EXTT2=
EXTT3=
EXTT4=
EXTT5=
EXTT6=
EXTT7=
EXTT8=
PLAYORDER=
